<svg xmlns="http://www.w3.org/2000/svg" width="35" height="35" viewBox="0 0 400 400" xml:space="preserve"><path style="stroke:none;stroke-width:1;stroke-dasharray:none;stroke-linecap:butt;stroke-dashoffset:0;stroke-linejoin:miter;stroke-miterlimit:4;fill:#fff;fill-rule:nonzero;opacity:1" transform="matrix(.73 0 0 .73 13.12 13.12)" d="M128.4 189.3 233.4 89c5.8-6 13.7-9 22.4-9s16.5 3 22.4 9l105.4 100.3c12.5 11.9 12.5 31.3 0 43.2-12.5 11.9-32.7 11.9-45.2 0L288 184.4v217c0 16.9-14.3 30.6-32 30.6s-32-13.7-32-30.6v-217l-50.4 48.2c-12.5 11.9-32.7 11.9-45.2 0-12.5-12-12.5-31.3 0-43.3z"/></svg>