<svg width="49" height="46" fill="none" xmlns="http://www.w3.org/2000/svg"><path d="M11.955 13.11a1.618 1.618 0 0 0-1.511.03c-.463.26-.746.729-.746 1.235v18.208c0 .794.686 1.438 1.531 1.438.846 0 1.532-.644 1.532-1.438V16.782l11.013 5.567c.453.23.999.23 1.452 0l11.014-5.567v15.801c0 .794.685 1.438 1.53 1.438.847 0 1.532-.644 1.532-1.438V14.375c0-.506-.283-.975-.746-1.234a1.618 1.618 0 0 0-1.511-.032L24.5 19.451l-12.545-6.342Z" fill="#000"/><path fill-rule="evenodd" clip-rule="evenodd" d="M35.342 7.133a129.66 129.66 0 0 0-21.684 0l-3.098.26c-3.323.28-6.008 2.663-6.491 5.762a63.935 63.935 0 0 0 0 19.69c.483 3.1 3.168 5.482 6.49 5.761l3.099.26c7.213.606 14.47.606 21.684 0l3.098-.26c3.323-.279 6.008-2.662 6.49-5.761a63.938 63.938 0 0 0 0-19.69c-.482-3.1-3.167-5.483-6.49-5.762l-3.098-.26ZM13.93 9.997c7.033-.59 14.107-.59 21.14 0l3.098.26c1.91.16 3.455 1.531 3.733 3.313a61.228 61.228 0 0 1 0 18.86c-.278 1.782-1.822 3.152-3.733 3.313l-3.098.26c-7.033.59-14.107.59-21.14 0l-3.098-.26c-1.91-.16-3.455-1.531-3.733-3.314a61.235 61.235 0 0 1 0-18.859c.278-1.782 1.822-3.153 3.733-3.313l3.098-.26Z" fill="#000"/></svg>