<svg width="24" height="15" fill="none" xmlns="http://www.w3.org/2000/svg"><path d="M23.457 1.031a9.233 9.233 0 0 1-1.09 2.372l.019-.031c-.448.784-.983 1.69-1.605 2.718-.534.811-.816 1.231-.848 1.26a1.378 1.378 0 0 0-.267.649v.007a.96.96 0 0 0 .267.562l.4.468c2.14 2.31 3.345 3.902 3.612 4.776a.968.968 0 0 1-.112.87l.002-.002a.943.943 0 0 1-.784.303h.004-2.637c-.337 0-.647-.124-.89-.33l.003.003a7.105 7.105 0 0 1-.95-.996l-.01-.013a30.62 30.62 0 0 0-1.226-1.38c-1.188-1.186-2.065-1.78-2.63-1.78a.761.761 0 0 0-.516.142l.002-.002a.83.83 0 0 0-.16.614v-.005a13.819 13.819 0 0 0-.038 1.474v-.018 1.217a.836.836 0 0 1-.266.795 3.052 3.052 0 0 1-1.618.281l.013.001a8.041 8.041 0 0 1-4.276-1.331l.035.02a12.203 12.203 0 0 1-3.717-3.7l-.027-.045a27.946 27.946 0 0 1-2.472-4.192l-.07-.162A26.571 26.571 0 0 1 .372 2.634l-.06-.195A7.285 7.285 0 0 1 .002.827L0 .801C0 .271.297.005.892.005h2.63a1.027 1.027 0 0 1 .74.236L4.26.24c.2.23.348.513.42.828l.004.013A27.396 27.396 0 0 0 6.27 4.876l-.067-.144a15.418 15.418 0 0 0 1.623 2.705l-.023-.033c.534.688.95 1.032 1.249 1.032h.032a.398.398 0 0 0 .347-.21v-.001a1.955 1.955 0 0 0 .112-.827v.006-4.073a3.508 3.508 0 0 0-.32-1.33l.008.02a3.126 3.126 0 0 0-.45-.73l.002.004a1.176 1.176 0 0 1-.31-.65L8.471.638c0-.178.078-.339.2-.444h.001a.661.661 0 0 1 .46-.188h4.155a.622.622 0 0 1 .56.233V.24a1.486 1.486 0 0 1 .16.802v-.006V6.47a1.095 1.095 0 0 0 .135.613l-.002-.004a.396.396 0 0 0 .333.187h.001a.917.917 0 0 0 .472-.17l-.003.002c.271-.197.506-.42.709-.673l.004-.006a16.372 16.372 0 0 0 1.655-2.362l.039-.074c.344-.598.716-1.336 1.053-2.093l.062-.154.446-.937C19.067.33 19.483 0 19.972 0l.057.001h-.003 2.632c.71 0 .977.343.8 1.03h-.001Z" fill="#272728"/></svg>