<svg width="49" height="33" fill="none" xmlns="http://www.w3.org/2000/svg"><path d="M47.891 2.269c-.551 1.961-1.294 3.668-2.226 5.219l.04-.07a285.951 285.951 0 0 1-3.278 5.98c-1.09 1.784-1.666 2.709-1.73 2.772-.282.4-.478.89-.545 1.427l-.002.017c.055.49.255.917.547 1.236l.817 1.03c4.37 5.081 6.828 8.583 7.374 10.507.071.213.112.457.112.714 0 .448-.127.862-.341 1.201l.004-.007c-.36.419-.862.677-1.417.677-.061 0-.125-.002-.184-.009h.008-5.382a2.688 2.688 0 0 1-1.818-.725l.006.004a15.208 15.208 0 0 1-1.942-2.19l-.018-.028a65.807 65.807 0 0 0-2.503-3.038c-2.426-2.609-4.217-3.913-5.371-3.913a1.482 1.482 0 0 0-1.054.312l.006-.005c-.212.3-.34.689-.34 1.107 0 .083.003.161.014.242v-.009a32.75 32.75 0 0 0-.078 3.241v-.039V30.6c.02.108.033.233.033.36 0 .56-.225 1.058-.576 1.389l-.002.002a5.861 5.861 0 0 1-3.302.617l.027.002c-3.215-.07-6.196-1.134-8.73-2.93l.071.047c-3.085-2.121-5.642-4.882-7.59-8.144l-.055-.097c-1.85-2.777-3.575-5.914-5.046-9.223l-.143-.355c-.86-1.853-1.75-4.131-2.517-6.474l-.123-.427A17.133 17.133 0 0 1 .004 1.82L0 1.762C0 .595.607.012 1.821.012h5.371a2.009 2.009 0 0 1 1.509.52L8.697.526c.408.506.71 1.127.86 1.82l.006.028c.988 3.158 2.036 5.81 3.24 8.352l-.136-.317c.984 2.241 2.072 4.17 3.314 5.951l-.047-.071c1.089 1.512 1.938 2.268 2.548 2.268.019.003.041.003.066.003.302 0 .565-.185.708-.462l.002-.005a4.602 4.602 0 0 0 .227-1.818v.014-8.962a8.212 8.212 0 0 0-.654-2.927l.017.044a6.982 6.982 0 0 0-.92-1.606l.007.01a2.673 2.673 0 0 1-.635-1.43l-.002-.014c0-.393.16-.747.408-.978l.002-.002a1.3 1.3 0 0 1 .94-.411h8.482c.045-.007.096-.01.15-.01.397 0 .755.204.992.523l.002.002a3.473 3.473 0 0 1 .324 1.763V2.28v11.951a2.492 2.492 0 0 0 .278 1.35l-.004-.01c.149.25.398.412.68.412h.002a1.79 1.79 0 0 0 .962-.375l-.006.005a7.643 7.643 0 0 0 1.447-1.481l.009-.012a36.168 36.168 0 0 0 3.38-5.198l.079-.161a53.527 53.527 0 0 0 2.15-4.605l.127-.34.91-2.06C38.93.726 39.778 0 40.777 0c.039 0 .077 0 .116.002h-.006 5.373c1.45 0 1.995.756 1.633 2.267h-.002Z" fill="#161617"/></svg>